<svg width="32" height="32" viewBox="0 0 32 32" fill="none" xmlns="http://www.w3.org/2000/svg">
<circle cx="16" cy="16" r="16" fill="#7F27E4"/>
<path d="M24.25 12.511C25.134 12.795 25.75 13.639 25.75 14.608V18.894C25.75 20.03 24.903 20.994 23.77 21.087C23.43 21.114 23.09 21.139 22.75 21.159V24.25L19.75 21.25C18.396 21.25 17.056 21.195 15.73 21.087C15.4413 21.0637 15.1605 20.9813 14.905 20.845M24.25 12.511C24.0955 12.4613 23.9358 12.4294 23.774 12.416C21.0959 12.1937 18.4041 12.1937 15.726 12.416C14.595 12.51 13.75 13.473 13.75 14.608V18.894C13.75 19.731 14.21 20.474 14.905 20.845M24.25 12.511V10.637C24.25 9.016 23.098 7.611 21.49 7.402C19.4208 7.13379 17.3365 6.99951 15.25 7C13.135 7 11.052 7.137 9.01 7.402C7.402 7.611 6.25 9.016 6.25 10.637V16.863C6.25 18.484 7.402 19.889 9.01 20.098C9.587 20.173 10.167 20.238 10.75 20.292V25L14.905 20.845" stroke="white" stroke-width="1.5" stroke-linecap="round" stroke-linejoin="round"/>
</svg>
